<svg width="150" height="150" viewBox="0 0 150 150" fill="none" xmlns="http://www.w3.org/2000/svg">
  <!-- Background circle -->
  <circle cx="75" cy="75" r="75" fill="#1a1a1a"/>
  <circle cx="75" cy="75" r="65" fill="#000000"/>
  
  <!-- Spider symbol -->
  <path d="M75 30 L95 60 L75 90 L55 60 Z" fill="#FF6B35"/>
  <path d="M75 40 L85 65 L75 80 L65 65 Z" fill="#FFD700"/>
  
  <!-- Spider legs -->
  <path d="M75 45 L105 35 M75 45 L105 55 M75 45 L105 75 M75 45 L105 95" stroke="#FF6B35" stroke-width="2"/>
  <path d="M75 45 L45 35 M75 45 L45 55 M75 45 L45 75 M75 45 L45 95" stroke="#FF6B35" stroke-width="2"/>
  
  <!-- Eyes -->
  <ellipse cx="65" cy="50" rx="8" ry="12" fill="white" transform="rotate(-10 65 50)"/>
  <ellipse cx="85" cy="50" rx="8" ry="12" fill="white" transform="rotate(10 85 50)"/>
  
  <!-- Web pattern -->
  <path d="M45 45 Q75 35 105 45" stroke="rgba(255,255,255,0.3)" stroke-width="1" fill="none"/>
  <path d="M50 65 Q75 55 100 65" stroke="rgba(255,255,255,0.3)" stroke-width="1" fill="none"/>
  <path d="M55 85 Q75 75 95 85" stroke="rgba(255,255,255,0.3)" stroke-width="1" fill="none"/>
  
  <!-- Border -->
  <circle cx="75" cy="75" r="73" stroke="#FF6B35" stroke-width="4" fill="none"/>
</svg>